<svg width="18" height="15" viewBox="0 0 18 15" fill="none" xmlns="http://www.w3.org/2000/svg">
<path fill-rule="evenodd" clip-rule="evenodd" d="M0 14.25C0 14.0511 0.0790178 13.8603 0.21967 13.7197C0.360322 13.579 0.551088 13.5 0.75 13.5H17.25C17.4489 13.5 17.6397 13.579 17.7803 13.7197C17.921 13.8603 18 14.0511 18 14.25C18 14.4489 17.921 14.6397 17.7803 14.7803C17.6397 14.921 17.4489 15 17.25 15H0.75C0.551088 15 0.360322 14.921 0.21967 14.7803C0.0790178 14.6397 0 14.4489 0 14.25ZM0 9.75C0 9.55109 0.0790178 9.36032 0.21967 9.21967C0.360322 9.07902 0.551088 9 0.75 9H17.25C17.4489 9 17.6397 9.07902 17.7803 9.21967C17.921 9.36032 18 9.55109 18 9.75C18 9.94891 17.921 10.1397 17.7803 10.2803C17.6397 10.421 17.4489 10.5 17.25 10.5H0.75C0.551088 10.5 0.360322 10.421 0.21967 10.2803C0.0790178 10.1397 0 9.94891 0 9.75ZM0 5.25C0 5.05109 0.0790178 4.86032 0.21967 4.71967C0.360322 4.57902 0.551088 4.5 0.75 4.5H17.25C17.4489 4.5 17.6397 4.57902 17.7803 4.71967C17.921 4.86032 18 5.05109 18 5.25C18 5.44891 17.921 5.63968 17.7803 5.78033C17.6397 5.92098 17.4489 6 17.25 6H0.75C0.551088 6 0.360322 5.92098 0.21967 5.78033C0.0790178 5.63968 0 5.44891 0 5.25ZM0 0.75C0 0.551088 0.0790178 0.360322 0.21967 0.21967C0.360322 0.0790178 0.551088 0 0.75 0H17.25C17.4489 0 17.6397 0.0790178 17.7803 0.21967C17.921 0.360322 18 0.551088 18 0.75C18 0.948912 17.921 1.13968 17.7803 1.28033C17.6397 1.42098 17.4489 1.5 17.25 1.5H0.75C0.551088 1.5 0.360322 1.42098 0.21967 1.28033C0.0790178 1.13968 0 0.948912 0 0.75Z" fill="black"/>
</svg>
